# xmcd
#
# Track frame offsets:
#	150
#	11697
#	23067
#	37122
#	47982
#	54727
#	67535
#	77617
#	89332
#	101677
#	113057
#	122545
#	135745
#	147060
#	156330
#	167032
#	173812
#	186680
#	199307
#	211002
#	223140
#	235952
#	247772
#	258577
#	272025
#	284170
#
# Disc length: 3928 seconds
#
# Revision: 2
# Processed by: cddbd v1.5.2PL0 Copyright (c) Steve Scherf et al.
# Submitted via: audiograbber 1.83.01
#
DISCID=810f561a
DTITLE=Hank Williams - The Legend
DYEAR=1900
DGENRE=Country
TTITLE0=Nobody's Lonesome For Me
TTITLE1=Crazy Heart
TTITLE2=The Funeral
TTITLE3=We Live In Two Different Worlds
TTITLE4=When You're Tired Of Breaking Other Hearts
TTITLE5=Wait For The Light To Shine
TTITLE6=Singing Waterfall
TTITLE7=Lost On The River
TTITLE8=I Won't Be Home No More
TTITLE9=Weary Blues From Waitin'
TTITLE10=Blue Love (In My Heart)
TTITLE11=The Pale Horse And His Rider
TTITLE12=No No Joe
TTITLE13=Faded Love And Winter Roses
TTITLE14=There's No Room In My Heart (For The Blues)
TTITLE15=Last Night I Dreamed Of Heaven
TTITLE16=I Can't Get You Off My Mind
TTITLE17=I Don't Care (If Tomorrow Never Comes)
TTITLE18=Dear John
TTITLE19=My Love For You (Has Turned To Hate)
TTITLE20=On The Banks Of The Old Pontchartrain
TTITLE21=I'll Be A Bachelor 'Til I Die
TTITLE22=Let's Turn Back The Years
TTITLE23=I'd Still Want You
TTITLE24=Never Again (Will I Knock On Your Door)
TTITLE25=Leave Me Alone With The Blues
EXTD=
EXTT0=
EXTT1=
EXTT2=
EXTT3=
EXTT4=
EXTT5=
EXTT6=
EXTT7=
EXTT8=
EXTT9=
EXTT10=
EXTT11=
EXTT12=
EXTT13=
EXTT14=
EXTT15=
EXTT16=
EXTT17=
EXTT18=
EXTT19=
EXTT20=
EXTT21=
EXTT22=
EXTT23=
EXTT24=
EXTT25=
PLAYORDER=
